<?xml version="1.0" encoding="UTF-8" standalone="no"?>
<!-- Created with Inkscape (http://www.inkscape.org/) -->

<svg
   width="22.221827mm"
   height="22.221819mm"
   viewBox="0 0 22.221827 22.221819"
   version="1.1"
   id="svg1"
   xmlns="http://www.w3.org/2000/svg"
   xmlns:svg="http://www.w3.org/2000/svg">
  <defs
     id="defs1">
    <clipPath
       clipPathUnits="userSpaceOnUse"
       id="clipPath50">
      <path
         d="M 0,510.236 H 907.087 V 0 H 0 Z"
         id="path50" />
    </clipPath>
    <clipPath
       clipPathUnits="userSpaceOnUse"
       id="clipPath52">
      <path
         d="M 0,510.236 H 907.087 V 0 H 0 Z"
         transform="translate(-239.6221,-192.4314)"
         id="path52" />
    </clipPath>
  </defs>
  <path
     id="path49"
     d="m 270.105,159.331 h -62.991 v 62.991 h 62.991 z"
     style="fill:#000000;fill-opacity:1;fill-rule:nonzero;stroke:none"
     transform="matrix(0.35277776,0,0,-0.35277776,-73.065209,78.430256)"
     clip-path="url(#clipPath50)" />
  <path
     id="path51"
     d="m 0,0 v -5.613 h 15.782 c -2.109,-17.363 -26.328,-18.687 -32.356,-3.07 -3.624,8.74 0.266,20.128 9.277,23.738 2.271,0.988 4.78,1.428 7.297,1.38 v 5.781 C -9.379,22.235 -18.696,17.211 -22.55,7.693 -29.178,-7.891 -17.345,-25.662 -0.33,-25.423 13.676,-25.566 23.353,-13.62 22.319,0 Z"
     style="fill:#ffffff;fill-opacity:1;fill-rule:nonzero;stroke:none"
     transform="matrix(0.35277776,0,0,-0.35277776,11.468145,10.544736)"
     clip-path="url(#clipPath52)" />
</svg>
